# xmcd
#
# Track frame offsets:
# 150
# 18067
# 39850
# 55122
# 69055
# 84985
# 105540
# 121577
# 147625
# 161580
# 177750
# 197077
# 226016
# 248430
# 270750
# 291907
# 316400
# 338637
#
# Disc length: 4796 seconds
#
# Revision: 1
# Processed by: cddbd v1.5.2PL0 Copyright (c) Steve Scherf et al.
# Submitted via: B's Recorder GOLD CDDB Client
#
DISCID=d712ba12
DTITLE=Tina - Respeto - Luv Tina
DYEAR=1900
DGENRE=
TTITLE0=Just the two of us
TTITLE1=Billie Jean
TTITLE2=Mas que nada
TTITLE3=Back stabbers
TTITLE4=Hard to say I'm sorry
TTITLE5=Caravan
TTITLE6=Long train runnin
TTITLE7=Copacabana
TTITLE8=Another one bites the dust
TTITLE9=Have you ever seen the rain
TTITLE10=Endless love
TTITLE11=To feel the fire ST
TTITLE12=Naked heart BC
TTITLE13=Naked heart LT
TTITLE14=Baby Blue LT
TTITLE15=To feel the fire LT
TTITLE16=Naked heart Org
TTITLE17=Baby Blue Org
EXTD=
EXTT0=
EXTT1=
EXTT2=
EXTT3=
EXTT4=
EXTT5=
EXTT6=
EXTT7=
EXTT8=
EXTT9=
EXTT10=
EXTT11=
EXTT12=
EXTT13=
EXTT14=
EXTT15=
EXTT16=
EXTT17=
PLAYORDER=
